# xmcd
#
# Track frame offsets: 
#        150
#        18371
#        41736
#        58414
#        75385
#        93414
#        113275
#        135393
#        150314
#        178621
#        191956
#        214913
#        242150
#
# Disc length: 3559 seconds
#
# Revision: 0
# Processed by: cddbd v1.5.2PL0 Copyright (c) Steve Scherf et al.
# Submitted via: ExactAudioCopy v1.1
#
DISCID=a60de50d
DTITLE=Leonard Downtown Brown - Birth of the Blues
DYEAR=1900
DGENRE=Blues
TTITLE0=Don't Tell Me How To Barbecue
TTITLE1=Breaking Out
TTITLE2=Mama Don't Treat Me Like A Baby
TTITLE3=Hide My Tears
TTITLE4=Happy Time Blues
TTITLE5=French Quarter Woman
TTITLE6=Waiting In Line
TTITLE7=Mama Is Cooking
TTITLE8=Flying Like An Eagle
TTITLE9=Taking It Easy
TTITLE10=Open 24 Hours
TTITLE11=Birth Of The Blues
TTITLE12=River Man
EXTD=
EXTT0=
EXTT1=
EXTT2=
EXTT3=
EXTT4=
EXTT5=
EXTT6=
EXTT7=
EXTT8=
EXTT9=
EXTT10=
EXTT11=
EXTT12=
PLAYORDER=
